<svg id="Calque_1" data-name="Calque 1" xmlns="http://www.w3.org/2000/svg" viewBox="0 0 2159 1194">
  <defs>
    <style>
      .cls-1 {
        fill: #fff;
      }

      .cls-2 {
        fill: blue;
      }
    </style>
  </defs>
  <title>logo_site</title>
  <rect class="cls-1" width="2159" height="1194"/>
  <g>
    <path class="cls-2" d="M142.831,338.924v-3.152q0-30.4,27.021-51.343c18.014-13.962,40.983-21.166,69.357-21.166q41.213,0,67.559,21.615c17.564,14.412,26.121,35.578,26.121,63.5v69.357c0,13.063,4.951,19.367,14.862,19.367h8.108v47.737c-7.658,4.056-16.215,5.855-26.121,5.855q-41.887,0-47.292-37.831H277.04c-12.159,27.925-35.128,41.887-69.357,41.887-21.166,0-38.28-6.3-51.793-18.468s-20.267-27.021-20.267-44.135c0-18.913,6.3-34.679,18.918-47.737s31.077-20.721,54.945-23.424l57.648-5.855V342.526c0-10.361-2.7-18.463-8.108-23.868s-12.609-8.108-21.62-8.108a30.972,30.972,0,0,0-20.716,7.658c-5.855,4.951-8.557,11.709-8.557,20.267Zm54.041,78.814c0,6.759,2.7,12.159,8.108,16.665s12.159,6.754,20.716,6.754a41.688,41.688,0,0,0,28.824-10.805c8.108-7.208,12.164-17.114,12.164-29.278V388.464L228.4,392.97c-9.007,1.349-16.21,4.051-22.065,8.557s-8.557,9.906-8.557,16.66Z" transform="translate(2 -4)"/>
    <path class="cls-2" d="M487.824,489.348h-64.4V268.663h60.35V311.9h4.051q5.41-22.292,21.62-35.128c10.81-8.557,24.318-13.058,40.533-13.058q34.454,0,56.749,25.672c14.862,17.114,22.065,40.983,22.065,71.605V489.348h-64.4v-123.4c0-12.609-3.152-22.969-9.007-31.077s-14.862-12.159-27.021-12.159c-26.576,0-40.084,18.918-40.084,57.2Z" transform="translate(2 -4)"/>
    <path class="cls-2" d="M701.315,338.924v-3.152q0-30.4,27.021-51.343c18.014-13.962,40.983-21.166,69.357-21.166q41.213,0,67.559,21.615c17.564,14.412,26.121,35.578,26.121,63.5v69.357c0,13.063,4.951,19.367,14.862,19.367h8.108v47.737c-7.658,4.056-16.215,5.855-26.121,5.855q-41.887,0-47.292-37.831h-5.405c-12.159,27.925-35.128,41.887-69.357,41.887-21.166,0-38.28-6.3-51.793-18.468s-20.267-27.021-20.267-44.135c0-18.913,6.3-34.679,18.918-47.737s31.077-20.721,54.945-23.424l57.648-5.855V342.526c0-10.361-2.7-18.463-8.108-23.868s-12.609-8.108-21.62-8.108a30.972,30.972,0,0,0-20.716,7.658c-5.855,4.951-8.557,11.709-8.557,20.267Zm54.041,78.814c0,6.759,2.7,12.159,8.108,16.665s12.159,6.754,20.716,6.754A41.688,41.688,0,0,0,813,430.351c8.108-7.208,12.164-17.114,12.164-29.278V388.464l-38.285,4.506c-9.007,1.349-16.21,4.051-22.065,8.557s-8.557,9.906-8.557,16.66Z" transform="translate(2 -4)"/>
    <path class="cls-2" d="M1121.07,268.663V431.7h66.205v57.648H989.114V431.7h67.554V326.311H988.66V268.663ZM991.362,205.615a37.585,37.585,0,0,1,63.957-26.576,36.976,36.976,0,0,1,0,52.243,36.97,36.97,0,0,1-52.248,0,36.356,36.356,0,0,1-10.805-26.571Zm97.282.9a37.578,37.578,0,0,1,63.952-26.571,36.964,36.964,0,0,1,0,52.243,36.964,36.964,0,0,1-52.243,0,36.376,36.376,0,0,1-10.81-26.571Z" transform="translate(2 -4)"/>
    <path class="cls-2" d="M1339.961,403.326c-22.515-2.253-40.533-9.906-54.041-22.52s-20.267-28.374-20.267-47.287c0-22.07,9.007-39.634,27.021-52.243s39.634-18.918,64.856-18.918c36.477,0,67.554,10.361,93.226,31.526l-30.627,38.735c-19.817-14.412-40.084-21.62-60.35-21.62-8.557,0-15.761,1.8-21.166,5.405s-8.108,8.108-8.108,13.063c0,9.906,7.208,15.761,21.171,17.564l40.983,5.4c20.267,2.7,36.027,9.911,47.737,21.62s17.564,25.672,17.564,41.887c0,24.318-9.007,43.236-27.47,57.193s-41.887,20.721-70.256,20.721q-62.831,0-98.636-35.133l34.679-40.084c17.564,16.665,40.084,25.222,67.559,25.222,9.906,0,17.564-1.8,22.52-5.405s7.653-8.1,7.653-13.058q0-15.541-20.267-17.564Z" transform="translate(2 -4)"/>
    <path class="cls-2" d="M350.453,988.385c-22.969,31.072-55.4,46.838-97.282,46.838-34.679,0-62.6-10.81-84.219-31.976s-32.431-49.091-32.431-83.32q0-52.018,32.431-83.769c21.615-21.171,49.54-31.976,84.219-31.976q31.749,0,52.692,10.805c13.962,7.208,27.475,18.019,40.533,32.88L303.161,889.75c-13.058-18.463-28.824-27.92-46.838-27.92-16.215,0-29.273,5.405-39.184,15.761s-14.862,24.323-14.862,41.887S207.233,951,217.139,961.36s22.969,15.766,39.184,15.766q30.4,0,51.343-31.077Z" transform="translate(2 -4)"/>
    <path class="cls-2" d="M412.612,919.927c0-34.229,10.81-62.154,31.976-83.769s47.742-32.426,79.718-32.426,58.547,10.805,79.718,32.426S636,885.7,636,919.927c0,33.779-10.361,61.25-31.526,82.87s-47.742,32.426-79.718,32.426-58.547-10.81-79.713-32.426-31.526-49.545-31.526-83.32Zm78.369,42.337c8.557,10.805,19.812,16.21,33.325,16.21s24.773-5.405,33.33-16.21,13.058-24.773,13.058-42.337-4.5-31.526-13.058-42.337-19.817-16.21-33.33-16.21-24.768,5.4-33.325,16.21-13.063,24.773-13.063,42.337S482.424,951.454,490.981,962.264Z" transform="translate(2 -4)"/>
    <path class="cls-2" d="M839.58,808.233h64.4v220.685h-60.35V985.683H839.58c-3.607,14.862-10.81,26.571-21.62,35.578s-24.318,13.513-40.533,13.513q-33.779,0-55.395-25.672t-21.62-71.61V809.133h64.407v123.4c0,12.614,2.7,22.969,8.557,31.077s14.412,12.159,25.672,12.159c26.571,0,40.079-18.913,40.079-57.2Z" transform="translate(2 -4)"/>
    <path class="cls-2" d="M1054.415,1031.167H990.463V810.486h60.8v37.831h4.506a66.843,66.843,0,0,1,22.52-31.526,57.076,57.076,0,0,1,36.027-12.159c23.419,0,42.337,8.557,57.2,25.672s22.07,40.983,22.07,71.61v12.159H1131.43v-7.208q0-18.239-9.456-31.072c-6.3-8.557-14.412-12.614-24.773-12.614-28.374,0-42.786,23.419-42.786,69.807Z" transform="translate(2 -4)"/>
    <path class="cls-2" d="M1320.6,1012.7c-15.766-14.862-23.873-35.578-23.873-62.6V863.179h-52.692V809.133h52.692V738.876h64.407v70.256h91.427v54.046h-91.427V942c0,23.419,9.906,35.128,30.173,35.128,12.159,0,22.969-5.405,32.431-15.766l38.28,38.735c-7.658,10.356-18.468,18.913-32.426,25.217s-29.728,9.461-47.292,9.461C1357.076,1034.773,1336.359,1027.565,1320.6,1012.7Z" transform="translate(2 -4)"/>
    <path class="cls-2" d="M1680.008,809.133V975.772h66.205v54.046H1548.047V975.772H1615.6V863.179h-68V809.133ZM1611.1,696.54a47.843,47.843,0,1,1-13.962,33.779A45.906,45.906,0,0,1,1611.1,696.54Z" transform="translate(2 -4)"/>
    <path class="cls-2" d="M1884.033,1029.818h-64.4V809.133h60.35v43.236h4.051q5.41-22.292,21.62-35.128c10.81-8.557,24.318-13.058,40.533-13.058q34.454,0,56.749,25.672C2017.8,846.968,2025,870.837,2025,901.459v128.359h-64.4v-123.4c0-12.609-3.152-22.969-9.007-31.077s-14.862-12.159-27.021-12.159c-26.576,0-40.084,18.918-40.084,57.2Z" transform="translate(2 -4)"/>
  </g>
  <rect class="cls-2" x="1567" y="166" width="460" height="92"/>
</svg>
