<?xml version="1.0" encoding="utf-8"?>
<!-- Generator: Adobe Illustrator 22.0.1, SVG Export Plug-In . SVG Version: 6.00 Build 0)  -->
<svg version="1.1" id="Calque_1" xmlns="http://www.w3.org/2000/svg" xmlns:xlink="http://www.w3.org/1999/xlink" x="0px" y="0px"
	 viewBox="0 0 283.5 283.5" style="enable-background:new 0 0 283.5 283.5;" xml:space="preserve">
<style type="text/css">
	.st0{fill:#D51432;}
	.st1{fill:#212D58;}
</style>
<g>
	<g>
		<path class="st0" d="M145.7,15c0,0,0.1,0,0.1,0c3.8,0.8,7.8,1.3,11.5,2.4c3.7,1.1,7.2,2.7,10.8,4.2c2.4,1,2.6,3.2,1.9,5.2
			c-0.3,1-1.8,2.1-2.9,2.4c-17.1,4.6-34.3,8.5-52.1,9.3c-0.7,0-1.4,0.1-2.2,0.2c-0.2,0-0.4,0.2-0.4,0.4l0,0.2c0,0.2,0.2,0.4,0.4,0.4
			c3.9,0,7.9,0.2,11.8,0c17.7-0.9,34.8-4.3,51.5-10.4c5.5-2,11.5-3.8,17.4-4c13.2-0.6,24.5,10.5,25.3,23.7c0.4,7.2-1.3,13.8-4.9,20
			c-4.8,8.3-11.4,14.9-19.8,20.2c-0.3,0.2-0.7,0.1-0.9-0.3c-0.4-1-0.7-1.8-1-2.7c-1.6-4.5-3.8-8.5-7.7-11.4c-2.7-2-4.2-4.6-4.9-7.9
			c-1.6-7.1-5.9-11-12.3-11.6c-0.5,0-1,0-1.6,0.1c-0.3,0-0.6,0.3-0.5,0.6l0.1,1.2c0,0.4-0.4,0.7-0.8,0.6c-12-4.3-24.2-4.7-36.5-2.4
			c-2.7,0.5-5.1,1.2-4.7,4.8c0.1,0.8-0.3,1.7-0.6,2.3c-0.1,0.3,0,0.7,0.4,0.7c2.9,0.8,5.7,1.3,8.2,2.4c2.1,0.9,4.3,2.2,5.5,4
			c1.2,1.7,1.4,4.2,1.7,6.4c0.4,3.1,0.6,6.3,0.8,9.5c0,0.8-0.3,1.6-0.5,2.5c-1.1,4,1,6.4,5,5.9c1.6-0.2,3.3-0.3,4.1,1.7
			c0.1,0.2,0,0.5-0.2,0.6c-0.4,0.2-0.8,0.4-1.2,0.4c-2.4-0.2-3.7,0.5-3.3,3.2c0.1,0.7-0.7,1.5-1.3,2.2c-0.1,0.2-0.3,0.2-0.5,0.1
			l-0.2-0.1c-0.1-0.1-0.2-0.2-0.2-0.3c-0.1-0.7-0.2-1.3-0.4-2.2c-0.1-0.4-0.5-0.6-0.8-0.4c-2,0.9-2.4,2.9-3.3,4.9
			c-0.2,0.4,0.1,0.8,0.6,0.8c2.7,0,5,0,7.3,0c2,0,4-0.2,6.1-0.1c3.2,0.2,4.1-0.7,3.4-3.8c-0.3-1.6,0-2.5,1.8-2.2
			c0.9,0.1,1.9,0.3,2.9,0.4c1.7,0.2,2.8,1.8,2.4,3.5c-0.4,2-1.2,3.9-2.5,5.9c-1,1.6-3.4,1-3.6-0.9l0,0c-0.1-1.7-0.8-2.1-2.5-1.7
			c-3.5,0.8-7.1,1.3-10.7,2.1c-1.4,0.3-3.6,0.7-4,1.3c-0.3,0.4,0,0.9,0.1,1.6c0.1,0.5,0.6,0.9,1.1,1l4.6,0.5c0.3,0,0.5,0.2,0.5,0.5
			l0.4,2.5c0,0.2-0.1,0.4-0.3,0.5c-2.6,1-5.4,1.5-7,3.1c-1.5,1.5-1.7,4.3-2.5,7.1c-0.1,0.3-0.4,0.4-0.6,0.4l-4.4-0.7
			c-0.8-0.1-1,0.4-0.8,0.7c2.6,2.7,7.6,4.4,12.9,3.5c4-0.6,7.9-2.4,11.8-3.8c0.5-0.2,1,0.4,0.7,0.9c-1.6,2.1-3.2,4.3-5,6.4
			c-0.4,0.5-1.4,0.5-2.2,0.7c-1.3,0.3-3,0.3-3.9,1.1c-2.1,1.8-4.1,0.8-6.2,0.5c-1.5-0.2-3.2,0.5-4.8,0.6c-0.9,0.1-2,0.2-2.7-0.2
			c-6.3-3.3-12.6-6.6-18.9-10c-0.3-0.2-0.6-0.4-1-0.7c-0.3-0.3-0.7-0.1-0.9,0.2c-0.9,2.1-0.1,3.8,1.5,5c2.6,1.9,5.5,3.6,8.4,5.1
			c3.5,1.8,7.2,3.4,10.8,4.8c1.8,0.7,2.4,1.6,2.4,3.6c0.2,14.3,4.5,26.9,15,37.1c5.3,5.2,11.2,7.2,18.5,5.3c4.6-1.2,9.2-2.4,13.8-3
			c4.7-0.6,6.7,2.1,4.8,6.6c-0.9,2.2-2.6,4-3.8,6.1c-1.1,1.8-2.3,3.6-3.6,5.8c-0.3,0.5-1,0.3-1.1-0.3c-0.2-4.7,4.3-7.4,4.9-11.2
			c0-0.3-0.2-0.6-0.5-0.6c-2.6-0.5-5.1-0.9-8-1.4c-0.4-0.1-0.8,0.3-0.7,0.7c0.7,2.7,1.2,4.9,1.8,7.5c0.1,0.4-0.2,0.8-0.6,0.7
			c-51.8-2.1-103.1,0.3-154.3,10.2c-0.3,0-0.5-0.1-0.5-0.4c0-1.7,6.3-27.6,9.7-39.1c1.5-5.3,5.2-8,10.9-7.5c0.8,0.1,1.7-0.2,2.5-0.5
			c18-7.9,36.9-13.1,55.9-18.3c4.4-1.2,5.2-2,5.5-6.5c0-0.3-0.3-0.6-0.6-0.6c-2.3,0.1-4.5,0.4-6.8,0.2c-3-0.2-5.9-0.9-7.7-3.8
			c-0.4-0.6-1.4-1-2.1-1.3c-4.6-2.2-6.7-5.7-6.6-10.9c0-0.9-0.6-2.1-1.3-2.8c-3.5-3.4-4.6-10-2.5-14.9c0.2-0.6,1.1-0.4,1.1,0.2
			c0.5,5.4,2.3,9.7,7.6,11.9c0.4,0.2,0.9-0.2,0.8-0.6c-0.2-1.1-0.6-3-0.9-4.9c-0.1-0.4,0.1-0.8,0.5-0.9l0.4-0.1c0.4-0.1,0.8,0,1,0.3
			c2.5,3.7,6.5,5.3,10.5,4.2c5-1.4,8.1-5.2,7.8-10.2c-0.2-2.7,1.5-3.4,3.3-4.4c0.4-0.2,0.8,0,0.9,0.4c0.8,8.7,0.7,17.6,9.5,22.9
			c0.5,0.3,1.1-0.2,0.8-0.7c-2.5-5-2-10.3-2.7-15.3c-0.3-2.1-0.7-4.2-1.5-6.2c-2.4-6.1-3.5-11.8,2-16.7c0.4-0.4,0.2-1-0.4-1l-2.4,0
			c-0.6,0-0.8-0.3-0.7-0.6l2.7-7.8c0.2-0.4-0.3-0.9-0.7-0.7l-1.4,0.4c-0.5,0.1-0.9-0.4-0.6-0.8c1.6-2.8,2.5-5.5,1.3-8.6
			c-0.1-0.3-0.5-0.4-0.8-0.3c-4.8,2.2-9.8,2.4-15.2,0.2c-0.3-0.1-0.6,0-0.8,0.3c-0.6,1.5-1.1,2.9-1.9,4.2c-1.1,1.7-2.1,3.7-3.7,4.8
			c-4,2.8-6.2,6.3-5.8,11.2c0,0.3,0,0.6,0,0.9c0.1,5.2-1.5,6.2-6.3,4.1c-0.1-0.1-0.3-0.1-0.4-0.2c-0.3-0.1-0.6,0.2-0.5,0.5l0.6,2.8
			c0.1,0.5-0.4,0.9-0.8,0.6c-3.4-2-6.4-3.6-9.2-5.5C61.2,81,55,74.9,52.6,66.1c-3.9-14.3,0.9-30.2,23.2-31.7
			c5.4-0.4,10.8,0.2,16.2,0.4c1,0,2,0.1,3,0.2c0.2,0,0.4-0.1,0.5-0.3c0.1-0.3,0.2-0.5,0.1-0.7c-0.8-6.4-0.6-6.8,5.2-10
			c9.3-5.2,19.5-7.4,30.1-8.5c0.7-0.1,1.3-0.3,2-0.5c0,0,0.1,0,0.1,0L145.7,15z M123.4,83.3c-2.4,2.4-4.2,5.1-2.6,9.5
			c0.1,0.4,0.6,0.5,0.9,0.2c2.5-1.9,4.8-3.6,7.1-5.4c2.8-2.3,0.2-5.3,0.9-7.7c0.1-0.2,0-0.5-0.2-0.6l-2.1-1.7
			c-0.4-0.3-0.6-0.3-0.8-0.2c-1.2,0.8-2.4,1.5-3.8,2.4c-0.2,0.2-0.3,0.5-0.2,0.7l1,2.2C123.6,82.8,123.5,83.1,123.4,83.3z
			 M126.1,103.8c-0.1-0.8-0.3-1-1.1-1.2c-0.8-0.2-1.5,0.6-2,1.2c-2,2.3-0.8,9.6,1.7,12.2c0.3,0.3,0.7,0.3,0.9,0
			c2.7-3.1,2.8-6.3,0.2-9.1c-0.4-0.5-0.5-1.2-0.3-1.8C125.4,105.2,126.1,104.2,126.1,103.8z M96.5,119.3c-2.2,0-6.8,0-8.8,0
			c-0.4,0-0.7,0.5-0.5,0.8c0.5,0.9,0.9,1.9,1.6,2.2c2.5,1.1,5.9-0.1,8-2C97.2,119.9,97,119.3,96.5,119.3z M118.2,72.4
			c1.7-0.7,3.8-0.7,4.7-2.7c0.2-0.4-0.1-0.8-0.5-0.8c-3.2-0.3-4.4,0.4-5,2.8C117.2,72.2,117.7,72.6,118.2,72.4z M133.6,92.8
			l-0.4-0.1c-0.4-0.1-0.7,0.1-0.9,0.5l-0.6,1.4c-0.1,0.3,0.1,0.6,0.5,0.6c1.3-0.2,1.7-0.5,1.9-1.6C134.2,93.2,134,92.9,133.6,92.8z"
			/>
		<path class="st0" d="M176.8,207.9c0,0,7.5-1.4,10.4-3.8c1.5-1.2,2.7-1.6,4.5-0.6c3.3,1.8,6.6,2.1,9.5-1.1c0.3-0.4,1-0.7,1.5-0.7
			c7.5-0.1,11.5-5,14.9-10.8c1.7-2.9,3.3-5.9,5.3-8.6c1.2-1.6,2.8-2.7,4.9-2.6c0.5,0,0.7,0.6,0.5,1c-1.8,2.7-3.5,5.4-5.2,8
			c-0.3,0.5,0.2,1.2,0.8,1c3.5-1.6,6.5-5.6,6.6-9.2c0.1-2.3-1.5-3.1-3.1-2.9c-11.8,1.2-20.7-5.4-29.5-11.5
			c-12.6-8.8-24.6-18.5-37.1-28c-0.3-0.3-0.3-0.8,0-1c1.7-1.4,3.2-2.7,2.8-5c-0.1-0.4-0.4-0.6-0.8-0.5l-1.6,0.4
			c-0.4,0.1-0.8-0.2-0.8-0.7c0.3-4.4-0.1-8.5,3.2-12.3c2.2-2.4,3-6.2,4-9.4c0.8-2.6,1.2-5.4,1.7-7.8c0.1-0.3,0.3-0.5,0.6-0.5
			l4.3-0.2c0.5,0,0.8,0.4,0.7,0.8c-1.2,3.9-3.3,8.3,0.5,12.1c3.4,3.5,7.7,3.9,12,2.1c0.4-0.2,0.9,0.1,0.9,0.5c0.2,2.4-0.5,3.4-4,5.6
			c-0.4,0.3-0.4,0.9,0.1,1.2c5.4,2.7,11.3-0.3,13.5-7.3c0.2-0.6,0.9-0.7,1.2-0.1c0.5,0.9,0.8,1.5,0.9,2.2c0.6,3.9-0.7,7-3.6,9.6
			c-1.4,1.2-2.7,2.5-3.9,3.9c-2.3,2.6-5.2,4.1-8.7,4.1c-2.5,0-5,0-7.4-0.3c-2.3-0.3-4.5-0.9-6.7-1.4c-0.4-0.1-0.7,0.2-0.8,0.5
			c-0.8,3.3-0.2,4.3,3.2,5.4c20.4,7,40.9,14.1,61.4,21c1.4,0.5,3,0.5,4.4,0.3c2.8-0.4,5,0.6,6.8,2.5c1.5,1.6,2.9,3.4,3.9,5.3
			c6.1,11.5,6.9,24.2,8.1,37.3c0,0.4-0.4,0.8-0.8,0.7c-3.3-0.6-6.3-1.2-9.3-1.7c-10.2-1.6-20.4-3.2-30.6-4.7
			c-1.4-0.2-2.9,0.5-4.3,0.9c-4.9,1.6-9.6,3.3-14.5,4.8c-1.2,0.4-2.9,0.2-4-0.4c-2.6-1.4-4.6-0.5-7,0.7
			C183.2,208.3,176.8,208.7,176.8,207.9z"/>
		<path class="st0" d="M153.1,73.3c0.1,0.3,6.5,0,6.5,0c0.2,0,0.4-0.2,0.5-0.4c0.1-0.3,0.1-0.6,0.4-0.6c0.3,0,2.4,3.6,3.2,5.6
			c0.1,0.3-0.5,0.8-1.2,1.5c-0.4,0.4-1.1,0.3-1.4-0.2c-1.2-2-2.6-2.6-4.8-1.3c-0.7,0.4-2-0.1-2.9-0.2c-0.4-0.1-1.1-0.4-1.3-0.4
			c-0.2,0-0.7,0.7-0.6,0.9c0.1,0.2,4.2,3.2,4.2,3.2c0.6,0.5,0.4,1.4-0.4,1.6c-3.8,0.8-6.7-1-8-5.6c-0.1-0.3-0.1-0.7-0.3-0.7
			c-3.7-0.8-1.5-3.2-1.2-4.9c0.3-1.6,2.4-2.7,1.3-5c-0.2-0.4,1.6-2.5,2.7-2.6c2.5-0.3,5.2-0.4,7.5,0.5c2.6,1.1,6.1,1.4,7.2,4.9
			c0.2,0.6,1,1.9,0,2.1c-0.9,0.1-1.2-1.3-1.7-2c-1.9-2.5-4.9-3.3-7.9-2.1c-2.4,0.9-2.6,2-1.5,4.4C153.7,72.6,153,73,153.1,73.3z"/>
		<path class="st0" d="M181.5,168.5c-0.5-0.6,0.1-1.5,0.8-1.1c6,3.3,12.1,6.6,18.2,9.6c4.3,2.1,9,3.3,13.5,5l0,0
			c1.1,0.4,1.3,1.9,0.2,2.5c-0.2,0.1-0.3,0.2-0.5,0.2c-0.7,0.3-1.5,0.1-2.3,0.1c-1.3,0-2.6-0.1-3.1,1.1c-0.4,0.8-1.3,1.2-2.1,0.7
			C197.6,180.7,188.5,175.8,181.5,168.5z"/>
		<path class="st0" d="M173.3,94.3c-0.9,0.8-2.2,0.2-2.3-1c0,0,0-0.1,0-0.1c-0.2-2.9-0.4-5.9-0.8-8.8c-0.3-2.9-1.1-5.8-1.3-8.8
			c-0.1-1.8-0.1-3.6-0.1-5.5c0-1.5,2.1-1.9,2.6-0.5c0,0.1,0.1,0.2,0.1,0.4c1.4,4.1,2.2,8.3,3.9,12.3
			C177.4,86.8,176.7,91.2,173.3,94.3z"/>
		<path class="st0" d="M172.7,176.4c-9.8-3.8-19.9-13.1-22.3-20.6c-0.2-0.7,0.7-1.3,1.3-0.8c7.3,6.7,14.6,13.5,21.8,20.1
			C174.1,175.7,173.5,176.7,172.7,176.4z"/>
		<path class="st0" d="M106.3,69.3c0,4,0,11.5,0,15.5c0,1.1-1.3,1.6-2.1,0.9c-4.9-5-4.8-12.4,0-17.2C105,67.7,106.3,68.2,106.3,69.3
			z"/>
		<path class="st0" d="M188.5,185.1c4.9,2.7,10.9,6.5,16.4,9.7c0.6,0.4,0.6,1.3,0,1.6c-2.9,1.6-4.6,1.3-7.3-1
			c-2.6-2.2-5.2-4.3-7.7-6.6c-1-0.9-2.5-2.1-2.2-3.5C187.8,185.1,188.2,185,188.5,185.1z"/>
		<path class="st0" d="M158.9,148.1c-3.7-2.1-5.4-4.1-4.9-6.3c0.1-0.7,1.1-0.9,1.5-0.2c1.2,2.1,2.3,4.1,3.6,6.3
			C159.2,148,159.1,148.2,158.9,148.1z"/>
		<path class="st0" d="M154.4,94.1c-0.6,0.2-2.1,0.7-2.8,0.9c-0.2,0.1-0.3,0-0.4-0.2c-0.5-1.3-1.4-3.3-1.4-3.6
			c0-0.4,0.8-0.9,1.3-0.8c0.3,0,2,2.1,3.3,3.4C154.6,93.9,154.5,94,154.4,94.1z"/>
		<path class="st0" d="M140.3,141.3c0.1-1.2,3.6,4.9,2.4,5.5C141.1,147.5,140.2,143.1,140.3,141.3z"/>
	</g>
	<path class="st1" d="M66.3,253.3c-0.7,1.1-1.7,2.1-2.9,2.9c-1.2,0.8-2.5,1.3-3.8,1.5c-1.7,0.3-3.3,0.2-4.8-0.3
		c-1.6-0.5-2.9-1.1-4.1-1.9c-1.2-0.8-2.1-1.6-2.8-2.4c-1,0.3-2.1,0.5-3.2,0.7c-4.5,0.7-8.1,0.5-11-0.7s-5-3.2-6.6-6
		c-1.6-2.8-2.7-6.5-3.5-11c-0.6-3.5-0.7-6.7-0.4-9.7c0.3-3,1.6-5.7,3.9-8.2c2.3-2.4,5.9-4.1,10.8-4.9c4.5-0.7,8.1-0.5,11,0.7
		c2.9,1.2,5.1,3.2,6.6,6c1.6,2.8,2.7,6.5,3.5,11c0.6,3.6,0.7,6.9,0.3,10c-0.4,3.1-1.7,5.7-3.9,7.9c0.9,0.7,1.7,1.2,2.4,1.5
		c0.7,0.3,1.6,0.3,2.6,0.1c0.6-0.1,1.1-0.3,1.6-0.6c0.5-0.3,0.9-0.6,1.2-0.8L66.3,253.3z M36.8,244.2c1.6,2,3.9,2.8,6.7,2.3
		c2.6-0.4,4.5-1.9,5.5-4.3c1-2.4,1.2-5.6,0.5-9.5c-0.7-4.3-1.9-7.5-3.5-9.5s-3.9-2.8-6.7-2.3c-2.6,0.4-4.5,1.9-5.4,4.3
		c-1,2.4-1.2,5.6-0.5,9.5C34,239,35.2,242.2,36.8,244.2z"/>
	<path class="st1" d="M72.5,209.7l1.9,21.1c0.3,3.5,1.2,6.2,2.5,8.2s3.5,2.7,6.3,2.5c2.9-0.3,4.8-1.4,5.8-3.5s1.3-4.9,1-8.6
		l-1.9-21.1l9.5-0.9l2,21.5c0.6,6.2-0.5,10.9-3.2,14.3s-6.8,5.2-12.5,5.8c-5.6,0.5-10-0.5-13.2-3.2c-3.3-2.6-5.2-7.3-5.8-14
		L63.6,218l-1.3-7.4L72.5,209.7z"/>
	<path class="st1" d="M102.9,246.5l14.2-39.8l8.5-0.2l13.6,32.3l3.7,6.7l-10.5,0.2l-2.3-5.4l-14.3,0.4l-0.6-2.7l-2.9,8.1
		L102.9,246.5z M121.7,218.4L121.7,218.4l-4.6,14.3l9.8-0.2L121.7,218.4z"/>
	<path class="st1" d="M145.5,245.8l1.1-27.9l0-8.9l-0.2-2.6l10.2,0.4l-0.7,17.4l11.9-17l10.4,0.4l-12.4,18.5c0.2,0.4,0.5,1.1,0.9,2
		c1.1,2.5,2.2,4.6,3,6.2c0.9,1.6,1.9,3,3.1,4.2s2.4,1.8,3.8,1.9c0.5,0,0.9,0,1.5-0.2c0.5-0.2,1-0.3,1.4-0.5c0.4-0.2,0.6-0.3,0.6-0.3
		l2.1,4.7c-1.2,1-2.5,1.8-4,2.5c-1.5,0.7-2.9,1-4.3,1c-2.5-0.1-4.7-0.9-6.7-2.3s-3.8-3.4-5.4-5.8c-1.6-2.5-3.2-5.5-4.8-9.1l-1.6,2.9
		l-0.5,12.9L145.5,245.8z"/>
	<path class="st1" d="M214.4,218.6l-17.8-1.8l-0.9,8.5l14.3,1.5l-1.5,7.4l-13.6-1.4l-0.9,8.4l18.9,2l-0.8,7.4l-28.4-2.9l3.3-31.8
		l0.1-7.5l28.6,2.9L214.4,218.6z"/>
	<path class="st1" d="M222.5,219.7l0.6-7.4l17.5,3c4.4,0.8,7.6,2.3,9.7,4.6c2.1,2.3,2.8,5.4,2.1,9.3c-0.6,3.3-1.7,5.9-3.5,7.9
		c-1.8,2-4,3.1-6.8,3.5c0.5,2,0.9,3.6,1.3,4.8c0.4,1.2,1,2.1,1.7,2.8c0.7,0.7,1.7,1.2,2.8,1.4c0.5,0.1,1.1,0.1,1.6,0
		c0.6-0.1,1.1-0.2,1.5-0.4l1.5,4.9c-1.2,0.9-2.6,1.6-4.2,2.1c-1.7,0.5-3.1,0.6-4.5,0.4c-2.6-0.4-4.6-1.4-6-2.9s-2.4-3.2-2.9-5.2
		c-0.5-2-1-4.6-1.5-8c0-0.1-0.1-0.4-0.1-0.6l-4.5-0.8l-2.3,13.8l-9.4-1.6L222.5,219.7z M234.4,232.4c1.8,0.3,3.2,0.4,4.3,0.3
		c1.1-0.1,2-0.5,2.7-1.1c0.7-0.6,1.1-1.6,1.4-3c0.2-1.3,0.1-2.4-0.3-3.3c-0.4-0.9-1.1-1.5-2.2-2c-1-0.5-2.4-0.9-4.2-1.2l-4.3-0.7
		l-1.8,10.3L234.4,232.4z"/>
	<path class="st1" d="M112.8,260.1c0-0.1,0.1-0.2,0.2-0.2h4.7c0.1,0,0.2,0.1,0.2,0.2v0.3c0,0.1-0.1,0.2-0.2,0.2h-4v2.9h3.4
		c0.1,0,0.2,0.1,0.2,0.2v0.3c0,0.1-0.1,0.2-0.2,0.2h-3.4v3.1h4c0.1,0,0.2,0.1,0.2,0.2v0.3c0,0.1-0.1,0.2-0.2,0.2h-4.7
		c-0.1,0-0.2-0.1-0.2-0.2V260.1z"/>
	<path class="st1" d="M119.4,267c0.1-0.1,0.1-0.2,0.2-0.2c0.1-0.2,0.3-0.3,0.4-0.1c0.1,0.1,1,0.9,2,0.9c1,0,1.6-0.6,1.6-1.3
		c0-0.8-0.7-1.3-2.1-1.9c-1.3-0.6-2.1-1.1-2.1-2.5c0-0.8,0.6-2.1,2.6-2.1c1.2,0,2.1,0.6,2.1,0.6c0.1,0,0.2,0.2,0.1,0.4
		c0,0.1-0.1,0.2-0.1,0.2c-0.1,0.2-0.2,0.2-0.4,0.1c-0.1,0-0.8-0.6-1.6-0.6c-1.3,0-1.7,0.8-1.7,1.3c0,0.8,0.6,1.3,1.6,1.7
		c1.6,0.7,2.7,1.3,2.7,2.7c0,1.2-1.2,2.2-2.6,2.2c-1.4,0-2.4-0.8-2.5-1C119.4,267.4,119.3,267.3,119.4,267z"/>
	<path class="st1" d="M127.5,260.7h-2.1c-0.1,0-0.2-0.1-0.2-0.2v-0.3c0-0.1,0.1-0.2,0.2-0.2h5.1c0.1,0,0.2,0.1,0.2,0.2v0.3
		c0,0.1-0.1,0.2-0.2,0.2h-2.1v7.4c0,0.1-0.1,0.2-0.2,0.2h-0.5c-0.1,0-0.2-0.1-0.2-0.2V260.7z"/>
	<path class="st1" d="M134.2,260c0-0.1,0.1-0.1,0.1-0.1h1.6c1.3,0,2.5,1.1,2.5,2.4c0,1.4-1.1,2.5-2.5,2.5h-1.6
		c-0.1,0-0.1-0.1-0.1-0.1V260z M135.8,264.3c1.1,0,2-0.8,2-2c0-1.1-0.8-2-2-2h-1v3.9H135.8z"/>
	<path class="st1" d="M142.1,261.6l-0.9,0.7c-0.1,0.1-0.2,0.1-0.3,0l-0.2-0.3c-0.1-0.1,0-0.2,0-0.3l1.7-1.6h0.3
		c0.1,0,0.2,0.1,0.2,0.2v7.7c0,0.1-0.1,0.2-0.2,0.2h-0.4c-0.1,0-0.2-0.1-0.2-0.2V261.6z"/>
	<path class="st1" d="M145.9,264.1L145.9,264.1c-0.5-0.3-1.2-1-1.2-1.9c0-1.3,1-2.2,2.5-2.2c1.5,0,2.5,0.9,2.5,2.2
		c0,0.9-0.7,1.6-1.2,1.8v0c0.6,0.2,1.5,1,1.5,2c0,1.3-1,2.3-2.7,2.3c-1.7,0-2.7-1-2.7-2.3C144.4,265.1,145.3,264.3,145.9,264.1z
		 M147.1,267.7c1,0,1.8-0.6,1.8-1.5c0-0.7-0.7-1.5-1.8-1.6c-1.2,0.1-1.8,0.9-1.8,1.6C145.3,267.1,146.1,267.7,147.1,267.7z
		 M148.7,262.3c0-0.9-0.7-1.5-1.6-1.5c-0.9,0-1.5,0.6-1.5,1.5c0,0.7,0.5,1.3,1.6,1.4C148.2,263.6,148.7,263,148.7,262.3z"/>
	<path class="st1" d="M151.5,267.9l3.3-7h-3.9c-0.1,0-0.2-0.1-0.2-0.2v-0.3c0-0.1,0.1-0.2,0.2-0.2h4.8c0.1,0,0.2,0.1,0.2,0.2v0.1
		l-3.5,7.5c0,0.1-0.2,0.3-0.4,0.3h-0.3c-0.1,0-0.2-0.1-0.2-0.2V267.9z"/>
	<path class="st1" d="M157.6,267.9l3.3-7H157c-0.1,0-0.2-0.1-0.2-0.2v-0.3c0-0.1,0.1-0.2,0.2-0.2h4.8c0.1,0,0.2,0.1,0.2,0.2v0.1
		l-3.5,7.5c0,0.1-0.2,0.3-0.4,0.3h-0.3c-0.1,0-0.2-0.1-0.2-0.2V267.9z"/>
	<path class="st1" d="M136.3,266.9c0.4,0,0.7,0.3,0.7,0.7c0,0.4-0.3,0.7-0.7,0.7c-0.4,0-0.7-0.3-0.7-0.7
		C135.6,267.2,135.9,266.9,136.3,266.9z"/>
	<g>
		<path class="st1" d="M176.8,268.3c-2.1-0.2-3.8-1.9-4.6-4.4c0,0,0-0.1-0.1-0.1c0,0,0-0.1,0.1-0.1c1-2.3,2.9-3.8,4.9-3.7
			c0.5,0,1,0.2,1.4,0.4c-0.9,2-2.3,3.3-4,3.6c1.6,0.5,3,2.1,3.7,4.2C177.8,268.3,177.3,268.3,176.8,268.3z"/>
	</g>
	<g>
		<path class="st1" d="M182.5,267.7c-1.4-0.2-2.6-1.5-3.1-3.3c0,0,0-0.1,0-0.1c0,0,0-0.1,0-0.1c0.8-1.6,2.1-2.6,3.5-2.3
			c0.3,0,0.7,0.2,1,0.3c-0.6,1.3-1.7,2.2-2.9,2.4c1.1,0.5,2,1.6,2.5,3.1C183.1,267.7,182.8,267.7,182.5,267.7z"/>
	</g>
	<g>
		<path class="st1" d="M187.6,267.6c-1-0.2-1.8-1.2-2.1-2.5c0,0,0-0.1,0-0.1c0,0,0,0,0-0.1c0.6-1.1,1.5-1.7,2.5-1.5
			c0.2,0.1,0.5,0.1,0.7,0.3c-0.5,0.9-1.2,1.5-2,1.5c0.8,0.4,1.4,1.2,1.7,2.3C188.1,267.7,187.9,267.7,187.6,267.6z"/>
	</g>
	<path class="st1" d="M191,265.6c0.5,0.1,0.9,0.5,1.1,0.9c-0.3,0.3-0.7,0.4-1.2,0.3c-0.5-0.1-0.9-0.5-1.1-0.9
		C190.1,265.6,190.5,265.5,191,265.6z"/>
	<g>
		<path class="st1" d="M97.8,268.3c2.1-0.2,3.8-1.9,4.6-4.4c0,0,0-0.1,0.1-0.1c0,0,0-0.1-0.1-0.1c-1-2.3-2.9-3.8-4.9-3.7
			c-0.5,0-1,0.2-1.4,0.4c0.9,2,2.3,3.3,4,3.6c-1.6,0.5-3,2.1-3.7,4.2C96.8,268.3,97.3,268.3,97.8,268.3z"/>
	</g>
	<g>
		<path class="st1" d="M92.2,267.7c1.4-0.2,2.6-1.5,3.1-3.3c0,0,0-0.1,0-0.1c0,0,0-0.1,0-0.1c-0.8-1.6-2.1-2.6-3.5-2.3
			c-0.3,0-0.7,0.2-1,0.3c0.6,1.3,1.7,2.2,2.9,2.4c-1.1,0.5-2,1.6-2.5,3.1C91.5,267.7,91.8,267.7,92.2,267.7z"/>
	</g>
	<g>
		<path class="st1" d="M87,267.6c1-0.2,1.8-1.2,2.1-2.5c0,0,0-0.1,0-0.1c0,0,0,0,0-0.1c-0.6-1.1-1.5-1.7-2.5-1.5
			c-0.2,0.1-0.5,0.1-0.7,0.3c0.5,0.9,1.2,1.5,2,1.5c-0.8,0.4-1.4,1.2-1.7,2.3C86.5,267.7,86.8,267.7,87,267.6z"/>
	</g>
	<path class="st1" d="M83.6,265.6c-0.5,0.1-0.9,0.5-1.1,0.9c0.3,0.3,0.7,0.4,1.2,0.3c0.5-0.1,0.9-0.5,1.1-0.9
		C84.5,265.6,84.1,265.5,83.6,265.6z"/>
	<g>
		<path class="st1" d="M265.5,253.3c0,2.4-1.9,4.3-4.4,4.3c-2.4,0-4.4-1.9-4.4-4.3c0-2.4,1.9-4.3,4.4-4.3
			C263.6,249,265.5,250.9,265.5,253.3z M257.8,253.3c0,1.9,1.4,3.4,3.3,3.4c1.9,0,3.2-1.5,3.2-3.4c0-1.9-1.4-3.4-3.3-3.4
			C259.2,249.9,257.8,251.4,257.8,253.3z M260.4,255.5h-1v-4.3c0.4-0.1,0.9-0.1,1.6-0.1c0.8,0,1.2,0.1,1.5,0.3
			c0.2,0.2,0.4,0.5,0.4,0.9c0,0.5-0.4,0.8-0.9,1v0.1c0.4,0.2,0.7,0.5,0.8,1c0.1,0.6,0.2,0.9,0.3,1.1h-1.1c-0.1-0.2-0.2-0.5-0.3-1
			c-0.1-0.5-0.3-0.7-0.9-0.7h-0.5V255.5z M260.5,253.1h0.5c0.5,0,1-0.2,1-0.6c0-0.4-0.3-0.7-0.9-0.7c-0.3,0-0.4,0-0.5,0.1V253.1z"/>
	</g>
</g>
</svg>
