<!-- Generator: Adobe Illustrator 22.0.1, SVG Export Plug-In  -->
<svg version="1.1"
	 xmlns="http://www.w3.org/2000/svg" xmlns:xlink="http://www.w3.org/1999/xlink" xmlns:a="http://ns.adobe.com/AdobeSVGViewerExtensions/3.0/"
	 x="0px" y="0px" width="92.455px" height="92.553px" viewBox="0 0 92.455 92.553"
	 style="enable-background:new 0 0 92.455 92.553;" xml:space="preserve">
<style type="text/css">
	.st0{fill:#FFFFFF;}
	.st1{fill:#0000FF;}
</style>
<defs>
</defs>
<g>
	<path class="st0" d="M46.194,0C20.718,0.062,0.043,20.764,0,46.253c-0.043,25.46,20.841,46.361,46.261,46.299
		c25.474-0.061,46.152-20.766,46.194-46.254C92.496,20.838,71.614-0.062,46.194,0z"/>
	<path class="st1" d="M46.194,0c25.42-0.062,46.303,20.837,46.261,46.299c-0.042,25.488-20.72,46.192-46.194,46.254
		C20.841,92.614-0.043,71.713,0,46.253C0.043,20.764,20.718,0.062,46.194,0z M51.208,65.327c0-0.491,0-0.893,0-1.296
		c0-4.123-0.058-8.248,0.03-12.369c0.034-1.592,0.234-3.223,0.656-4.755c0.532-1.93,2.339-2.922,4.381-2.726
		c1.952,0.188,2.925,1.153,3.284,3.352c0.12,0.734,0.152,1.49,0.154,2.236c0.013,4.76,0.007,9.521,0.007,14.281
		c0,0.401,0,0.802,0,1.249c3.81,0,7.497,0,11.223,0c0.025-0.323,0.062-0.579,0.062-0.834c0.003-5.922,0.034-11.845-0.022-17.767
		c-0.014-1.487-0.212-2.991-0.5-4.453c-0.495-2.517-1.862-4.481-4.169-5.687c-4.381-2.29-10.203-1.452-13.784,1.964
		c-0.656,0.626-1.272,1.296-2.111,2.155c0-1.754,0-3.199,0-4.645c-3.536,0-6.96,0-10.38,0c0,9.807,0,19.53,0,29.295
		C43.752,65.327,47.378,65.327,51.208,65.327z M32.658,65.309c0-9.81,0-19.558,0-29.282c-3.755,0-7.409,0-11.074,0
		c0,9.802,0,19.524,0,29.282C25.32,65.309,28.975,65.309,32.658,65.309z M27.027,31.246c3.138,0.005,5.689-2.304,5.696-5.157
		c0.007-2.838-2.568-5.205-5.674-5.212c-3.102-0.007-5.684,2.347-5.692,5.189C21.35,28.927,23.883,31.241,27.027,31.246z"/>
	<path class="st0" d="M51.208,65.327c-3.83,0-7.457,0-11.169,0c0-9.765,0-19.487,0-29.295c3.42,0,6.844,0,10.38,0
		c0,1.446,0,2.891,0,4.645c0.839-0.86,1.455-1.529,2.111-2.155c3.581-3.416,9.403-4.254,13.784-1.964
		c2.307,1.206,3.674,3.17,4.169,5.687c0.287,1.462,0.486,2.966,0.5,4.453c0.056,5.922,0.025,11.845,0.022,17.767
		c0,0.256-0.037,0.511-0.062,0.834c-3.726,0-7.413,0-11.223,0c0-0.447,0-0.848,0-1.249c0-4.76,0.006-9.521-0.007-14.281
		c-0.002-0.746-0.034-1.501-0.154-2.236c-0.359-2.198-1.332-3.164-3.284-3.352c-2.042-0.196-3.849,0.796-4.381,2.726
		c-0.422,1.532-0.622,3.162-0.656,4.755c-0.088,4.121-0.03,8.246-0.03,12.369C51.208,64.434,51.208,64.836,51.208,65.327z"/>
	<path class="st0" d="M32.658,65.309c-3.683,0-7.339,0-11.074,0c0-9.757,0-19.48,0-29.282c3.665,0,7.32,0,11.074,0
		C32.658,45.751,32.658,55.499,32.658,65.309z"/>
	<path class="st0" d="M27.027,31.246c-3.145-0.005-5.678-2.319-5.67-5.18c0.008-2.842,2.59-5.196,5.692-5.189
		c3.105,0.007,5.681,2.373,5.674,5.212C32.716,28.942,30.165,31.251,27.027,31.246z"/>
</g>
</svg>