<!-- Generator: Adobe Illustrator 22.0.1, SVG Export Plug-In  -->
<svg version="1.1"
	 xmlns="http://www.w3.org/2000/svg" xmlns:xlink="http://www.w3.org/1999/xlink" xmlns:a="http://ns.adobe.com/AdobeSVGViewerExtensions/3.0/"
	 x="0px" y="0px" width="692.073px" height="692.082px" viewBox="0 0 692.073 692.082"
	 style="enable-background:new 0 0 692.073 692.082;" xml:space="preserve">
<style type="text/css">
	.st0{fill:#FFFFFF;}
	.st1{fill:#0000FF;}
</style>
<defs>
</defs>
<g>
	<path class="st0" d="M692.071,347.149C692.645,154.558,537.492,1.921,349.606,0.018C154.714-1.956-2.25,157.484,0.024,349.671
		c2.266,191.505,158.847,342.081,344.913,342.41C540.087,692.426,692.237,533.471,692.071,347.149z"/>
	<path class="st1" d="M692.071,347.149c0.166,186.322-151.984,345.277-347.134,344.932C158.871,691.752,2.291,541.176,0.024,349.671
		C-2.25,157.484,154.714-1.956,349.606,0.018C537.492,1.921,692.645,154.558,692.071,347.149z M332.445,330.72
		c18.467-6.122,27.77-20.159,31.712-37.28c2.571-11.164,3.01-23.181,2.268-34.679c-2.439-37.812-35.052-68.559-73.006-69.138
		c-52.76-0.805-105.53-0.979-158.291-1.755c-7.4-0.109-9.545,2.226-9.53,9.54c0.203,98.613,0.191,197.226,0.019,295.839
		c-0.012,6.783,1.723,9.379,8.959,9.293c43.172-0.513,86.357-0.2,129.522-1.024c17.412-0.332,34.895,0.761,52.152-5.085
		c30.547-10.347,52.458-28.458,58.647-61.159c2.546-13.455,2.69-27.475,2.843-41.249
		C378.082,363.328,361.606,340.477,332.445,330.72z M455.34,404.768c3.691,0,6.846,0,10.001,0c44.504,0,89.01-0.209,133.51,0.194
		c7.826,0.071,10.093-2.756,10.548-9.872c1.775-27.77-4.174-53.851-16.156-78.774c-6.423-13.361-16.117-23.597-28.618-31.421
		c-25.87-16.192-54.146-20.466-83.576-15.054c-33.249,6.114-60.688,22.524-76.365,53.396c-14.885,29.312-21.414,61.061-14.74,93.707
		c8.897,43.523,31.721,75.676,77.744,86.509c21.312,5.016,42.759,4.325,64.31,2.529c41.118-3.426,71.433-33.695,74.526-74.291
		c0.446-5.851-1.389-8.27-7.393-8.205c-13.055,0.142-26.123,0.134-39.168-0.334c-5.536-0.199-6.804,2.533-8.498,7.038
		c-2.039,5.421-4.839,11.307-9.048,15.022c-13.049,11.518-29.389,9.838-45.438,10.316
		C471.809,456.279,453.921,430.645,455.34,404.768z M501.466,246.515c18.622,0,37.245-0.14,55.864,0.09
		c5.18,0.064,7.24-1.81,7.146-6.899c-0.162-8.776-0.075-17.556-0.053-26.335c0.01-4.071-1.325-6.356-6.021-6.337
		c-37.509,0.147-75.018,0.162-112.527,0.124c-5.205-0.005-6.948,2.338-6.782,7.361c0.272,8.238,0.327,16.502-0.02,24.734
		c-0.233,5.543,1.734,7.447,7.326,7.364C464.752,246.346,483.11,246.515,501.466,246.515z"/>
	<path class="st0" d="M332.445,330.72c29.161,9.757,45.637,32.609,45.295,63.305c-0.153,13.775-0.297,27.795-2.843,41.249
		c-6.189,32.701-28.1,50.811-58.647,61.159c-17.258,5.846-34.741,4.753-52.152,5.085c-43.164,0.823-86.35,0.511-129.522,1.024
		c-7.236,0.086-8.971-2.51-8.959-9.293c0.172-98.613,0.184-197.227-0.019-295.839c-0.015-7.314,2.13-9.649,9.53-9.54
		c52.761,0.775,105.531,0.949,158.291,1.755c37.954,0.579,70.567,31.326,73.006,69.138c0.741,11.497,0.302,23.515-2.268,34.679
		C360.215,310.561,350.912,324.597,332.445,330.72z M241.384,444.094c0-0.07,0-0.14,0-0.211c6.387,0,12.774,0.008,19.16-0.002
		c6.387-0.01,12.777,0.08,19.16-0.079c16.142-0.401,29.106-9.558,30.936-23.506c1.333-10.158,1.432-20.745,0.195-30.911
		c-1.916-15.744-14.259-25.829-30.165-25.975c-25.546-0.234-51.096-0.039-76.64-0.341c-5.62-0.066-7.331,1.818-7.269,7.343
		c0.248,22.085,0.301,44.178-0.026,66.261c-0.092,6.194,2.195,7.696,7.927,7.53C216.894,443.847,229.142,444.094,241.384,444.094z"
		/>
	<path class="st0" d="M455.34,404.768c-1.419,25.877,16.469,51.511,41.637,50.761c16.049-0.478,32.389,1.202,45.438-10.316
		c4.209-3.715,7.009-9.601,9.048-15.022c1.695-4.505,2.963-7.237,8.498-7.038c13.044,0.468,26.113,0.476,39.168,0.334
		c6.004-0.065,7.838,2.354,7.393,8.205c-3.093,40.596-33.408,70.865-74.526,74.291c-21.551,1.796-42.998,2.487-64.31-2.529
		c-46.023-10.833-68.847-42.986-77.744-86.509c-6.673-32.646-0.145-64.395,14.74-93.707c15.677-30.872,43.117-47.282,76.365-53.396
		c29.43-5.412,57.706-1.138,83.576,15.054c12.501,7.824,22.194,18.06,28.618,31.421c11.982,24.922,17.932,51.003,16.156,78.774
		c-0.455,7.116-2.721,9.943-10.548,9.872c-44.5-0.402-89.006-0.194-133.51-0.194C462.185,404.768,459.03,404.768,455.34,404.768z
		 M455.309,360.205c31.169,0,62.355,0,93.58,0c-1.805-29.508-18.346-45.031-46.377-44.992
		C477.463,315.249,454.717,340.597,455.309,360.205z"/>
	<path class="st0" d="M501.466,246.515c-18.356,0-36.714-0.169-55.066,0.102c-5.592,0.083-7.559-1.821-7.326-7.364
		c0.347-8.232,0.292-16.496,0.02-24.734c-0.166-5.023,1.578-7.366,6.782-7.361c37.509,0.038,75.018,0.023,112.527-0.124
		c4.696-0.018,6.031,2.266,6.021,6.337c-0.023,8.779-0.109,17.559,0.053,26.335c0.094,5.089-1.966,6.963-7.146,6.899
		C538.711,246.375,520.088,246.515,501.466,246.515z"/>
	<path class="st1" d="M241.384,444.094c-12.242,0-24.49-0.246-36.721,0.109c-5.733,0.166-8.019-1.336-7.927-7.53
		c0.328-22.083,0.274-44.176,0.026-66.261c-0.062-5.524,1.649-7.409,7.269-7.343c25.545,0.302,51.095,0.107,76.64,0.341
		c15.906,0.146,28.25,10.231,30.165,25.975c1.237,10.166,1.138,20.753-0.195,30.911c-1.831,13.948-14.795,23.105-30.936,23.506
		c-6.383,0.158-12.773,0.069-19.16,0.079c-6.387,0.01-12.774,0.002-19.16,0.002C241.384,443.953,241.384,444.024,241.384,444.094z"
		/>
	<path class="st1" d="M275.719,245.334c16.617,0.24,24.049,7.206,25.474,23.678c0.792,9.159-0.013,18.641-1.474,27.757
		c-1.303,8.132-6.436,14.19-15.416,14.898c-8.742,0.689-17.534,0.917-26.308,1.008c-17.856,0.185-35.717,0.012-53.572,0.273
		c-5.156,0.075-7.782-0.94-7.674-6.952c0.326-18.119,0.276-36.249,0.021-54.37c-0.075-5.36,1.908-6.836,7.014-6.723
		c13.054,0.289,26.118,0.096,39.178,0.096C242.963,245.383,264.803,245.176,275.719,245.334z"/>
	<path class="st1" d="M455.309,360.205c-0.592-19.608,22.154-44.956,47.204-44.992c28.031-0.04,44.572,15.483,46.377,44.992
		C517.664,360.205,486.478,360.205,455.309,360.205z"/>
</g>
</svg>